<svg width="80" height="72" viewBox="0 0 80 72" fill="none" xmlns="http://www.w3.org/2000/svg">
<mask id="mask0_3912_9393" style="mask-type:luminance" maskUnits="userSpaceOnUse" x="19" y="28" width="42" height="51">
<path d="M19.5566 28.3174H60.3735V78.9994H19.5566V28.3174Z" fill="white"/>
</mask>
<g mask="url(#mask0_3912_9393)">
<path d="M50.3972 56.7683H46.7588V55.1647C48.7935 53.4376 50.1503 50.9092 50.3355 48.0733C54.5293 42.5227 52.617 37.2191 51.754 35.3685C53.049 32.4698 51.0133 29.1401 50.9516 28.955C50.7675 28.6464 50.3972 28.4005 50.0269 28.4005C49.6565 28.3388 49.2255 28.523 48.9787 28.8315C47.7453 30.25 45.6479 30.6203 43.2429 29.818C39.9749 28.7698 36.7058 28.5847 36.5824 28.5847C36.3366 28.5847 33.9305 28.4612 32.3279 30.0032C31.649 30.6821 31.217 31.4834 31.0328 32.5316C30.4156 32.5933 29.676 32.7784 28.9354 33.2722C27.7021 34.1969 27.0242 35.8006 27.0242 38.0821C26.9625 43.2006 29.0589 47.5178 29.5526 48.5043C29.7378 50.7251 30.7242 52.8214 32.3279 54.4868C32.6355 54.7944 32.9441 55.0413 33.2527 55.2881V56.7683H29.6143C24.0637 56.7683 19.623 61.209 19.623 66.635V76.5028C19.623 77.8595 20.733 78.9694 22.0898 78.9694H57.859C59.2158 78.9694 60.3257 77.8595 60.3257 76.5028V66.635C60.3257 61.209 55.8861 56.7683 50.3972 56.7683ZM50.4589 64.1684C51.1368 64.1684 51.6922 64.7238 51.6922 65.4017C51.6922 66.0806 51.1368 66.635 50.4589 66.635C49.78 66.635 49.2255 66.0806 49.2255 65.4017C49.2255 64.7238 49.78 64.1684 50.4589 64.1684ZM30.1688 43.1389C29.7985 41.6587 29.4909 39.9326 29.4909 38.0821C29.4909 36.6636 29.7985 35.6771 30.3539 35.2451C30.9711 34.8141 31.7724 34.9982 31.7724 34.9982C32.1427 35.1217 32.5738 35.0599 32.8823 34.8141C33.1909 34.5672 33.3761 34.1969 33.3761 33.7649C33.3144 32.8401 33.4995 32.224 33.9923 31.792C34.6712 31.1131 35.9045 30.9907 36.3366 31.0513C36.3972 31.0513 39.4811 31.2365 42.3799 32.224C45.0935 33.087 47.5602 32.9019 49.4107 31.6685C49.7183 32.5933 49.9034 33.8266 49.2873 34.6907C49.0404 35.1217 48.9787 35.6154 49.2873 36.0474C49.2873 36.1092 51.3837 39.5006 49.9651 43.6943C49.4107 41.7821 48.2998 39.6857 46.0799 39.0068C45.9565 38.9451 45.8331 38.9451 45.7096 38.9451C45.5872 38.9451 45.4021 38.9451 45.2786 39.0068C45.2169 39.0068 42.133 40.1795 39.728 40.1795C36.1514 40.2412 34.486 39.192 34.486 39.192C34.1157 38.9451 33.6847 38.8844 33.2527 39.0686C31.5873 39.8092 30.6625 41.4745 30.1688 43.1389ZM31.9576 47.5178C32.0193 45.8524 32.3896 42.7696 33.8071 41.5969C34.7946 42.029 36.7058 42.6462 39.728 42.6462C41.9478 42.6462 44.5997 41.8438 45.6479 41.4745C47.0664 42.1524 47.6836 44.3105 47.9305 45.9759L47.8688 47.7029C47.7453 51.8967 44.107 55.2881 39.728 55.2881C37.5699 55.2881 35.5342 54.4251 34.054 52.8832C32.6972 51.3412 31.9576 49.4907 31.9576 47.5178ZM44.2911 56.7066V59.4202L39.9749 64.4152L35.6576 59.4202V56.8301C36.891 57.3845 38.3095 57.6314 39.728 57.6931C39.7897 57.6931 39.8515 57.6931 39.8515 57.6931C41.4551 57.6931 42.9353 57.3238 44.2911 56.7066ZM57.859 76.5028H54.159V74.6522C54.159 73.9744 53.6035 73.4189 52.9256 73.4189C52.2467 73.4189 51.6922 73.9744 51.6922 74.6522V76.5028H28.2575V74.6522C28.2575 73.9744 27.7021 73.4189 27.0242 73.4189C26.3453 73.4189 25.7908 73.9744 25.7908 74.6522V76.5028H22.0898V66.635C22.0898 62.9967 24.7416 59.9756 28.2575 59.3584V63.6139C26.839 63.9225 25.7908 65.1558 25.7908 66.635V69.7189C25.7908 70.3978 26.3453 70.9522 27.0242 70.9522C27.7021 70.9522 28.2575 70.3978 28.2575 69.7189V66.635C28.2575 66.2658 28.5034 66.0189 28.8737 66.0189H30.107C30.4774 66.0189 30.7242 66.2658 30.7242 66.635V69.7189C30.7242 70.3978 31.2787 70.9522 31.9576 70.9522C32.6355 70.9522 33.1909 70.3978 33.1909 69.7189V66.635C33.1909 65.1558 32.1427 63.9225 30.7242 63.6139V59.235H33.1909V59.9139C33.1909 60.2215 33.3144 60.4683 33.4995 60.7152L38.7415 66.7585V74.4681C38.7415 75.146 39.296 75.7015 39.9749 75.7015C40.6528 75.7015 41.2082 75.146 41.2082 74.4681V66.7585L46.4502 60.7152C46.6354 60.4683 46.7588 60.2215 46.7588 59.9139V59.235H49.2255V61.9486C47.807 62.4423 46.7588 63.7991 46.7588 65.4017C46.7588 67.4374 48.4232 69.1027 50.4589 69.1027C52.4936 69.1027 54.159 67.4374 54.159 65.4017C54.159 63.7991 53.1108 62.4423 51.6922 61.9486V59.3584C55.2071 59.9756 57.859 62.9967 57.859 66.635V76.5028Z" fill="#5A46E6" fill-opacity="0.15"/>
</g>
<path d="M39.2275 52.4501H40.646C41.3249 52.4501 41.8794 51.8956 41.8794 51.2167C41.8794 50.5389 41.3249 49.9834 40.646 49.9834H39.2275C38.5496 49.9834 37.9941 50.5389 37.9941 51.2167C37.9941 51.8956 38.5496 52.4501 39.2275 52.4501Z" fill="#5A46E6" fill-opacity="0.15"/>
<path d="M37.8165 46.2837C37.8165 46.3763 37.8082 46.4689 37.7897 46.5604C37.7712 46.652 37.7445 46.7404 37.7084 46.8268C37.6735 46.9122 37.6292 46.9945 37.5778 47.0717C37.5264 47.1488 37.4677 47.2208 37.4019 47.2866C37.335 47.3525 37.2641 47.4111 37.1869 47.4625C37.1087 47.515 37.0275 47.5582 36.9411 47.5942C36.8557 47.6302 36.7662 47.657 36.6747 47.6744C36.5841 47.693 36.4916 47.7022 36.3979 47.7022C36.3054 47.7022 36.2128 47.693 36.1212 47.6744C36.0307 47.657 35.9412 47.6302 35.8559 47.5942C35.7694 47.5582 35.6882 47.515 35.61 47.4625C35.5329 47.4111 35.4608 47.3525 35.395 47.2866C35.3292 47.2208 35.2705 47.1488 35.2191 47.0717C35.1677 46.9945 35.1235 46.9122 35.0885 46.8268C35.0525 46.7404 35.0257 46.652 35.0072 46.5604C34.9887 46.4689 34.9805 46.3763 34.9805 46.2837C34.9805 46.1901 34.9887 46.0986 35.0072 46.007C35.0257 45.9155 35.0525 45.827 35.0885 45.7406C35.1235 45.6552 35.1677 45.5729 35.2191 45.4958C35.2705 45.4186 35.3292 45.3466 35.395 45.2808C35.4608 45.215 35.5329 45.1563 35.61 45.1039C35.6882 45.0524 35.7694 45.0092 35.8559 44.9732C35.9412 44.9372 36.0307 44.9105 36.1212 44.892C36.2128 44.8745 36.3054 44.8652 36.3979 44.8652C36.4916 44.8652 36.5841 44.8745 36.6747 44.892C36.7662 44.9105 36.8557 44.9372 36.9411 44.9732C37.0275 45.0092 37.1087 45.0524 37.1869 45.1039C37.2641 45.1563 37.335 45.215 37.4019 45.2808C37.4677 45.3466 37.5264 45.4186 37.5778 45.4958C37.6292 45.5729 37.6735 45.6552 37.7084 45.7406C37.7445 45.827 37.7712 45.9155 37.7897 46.007C37.8082 46.0986 37.8165 46.1901 37.8165 46.2837Z" fill="#5A46E6" fill-opacity="0.15"/>
<path d="M44.962 46.2837C44.962 46.3763 44.9528 46.4689 44.9342 46.5604C44.9168 46.652 44.89 46.7404 44.854 46.8268C44.818 46.9122 44.7748 46.9945 44.7234 47.0717C44.6709 47.1488 44.6123 47.2208 44.5464 47.2866C44.4806 47.3525 44.4086 47.4111 44.3315 47.4625C44.2543 47.515 44.172 47.5582 44.0866 47.5942C44.0002 47.6302 43.9118 47.657 43.8202 47.6744C43.7287 47.693 43.6371 47.7022 43.5435 47.7022C43.4509 47.7022 43.3584 47.693 43.2668 47.6744C43.1753 47.657 43.0868 47.6302 43.0004 47.5942C42.915 47.5582 42.8327 47.515 42.7556 47.4625C42.6784 47.4111 42.6064 47.3525 42.5406 47.2866C42.4747 47.2208 42.4161 47.1488 42.3647 47.0717C42.3122 46.9945 42.269 46.9122 42.233 46.8268C42.197 46.7404 42.1703 46.652 42.1528 46.5604C42.1343 46.4689 42.125 46.3763 42.125 46.2837C42.125 46.1901 42.1343 46.0986 42.1528 46.007C42.1703 45.9155 42.197 45.827 42.233 45.7406C42.269 45.6552 42.3122 45.5729 42.3647 45.4958C42.4161 45.4186 42.4747 45.3466 42.5406 45.2808C42.6064 45.215 42.6784 45.1563 42.7556 45.1039C42.8327 45.0524 42.915 45.0092 43.0004 44.9732C43.0868 44.9372 43.1753 44.9105 43.2668 44.892C43.3584 44.8745 43.4509 44.8652 43.5435 44.8652C43.6371 44.8652 43.7287 44.8745 43.8202 44.892C43.9118 44.9105 44.0002 44.9372 44.0866 44.9732C44.172 45.0092 44.2543 45.0524 44.3315 45.1039C44.4086 45.1563 44.4806 45.215 44.5464 45.2808C44.6123 45.3466 44.6709 45.4186 44.7234 45.4958C44.7748 45.5729 44.818 45.6552 44.854 45.7406C44.89 45.827 44.9168 45.9155 44.9342 46.007C44.9528 46.0986 44.962 46.1901 44.962 46.2837Z" fill="#5A46E6" fill-opacity="0.15"/>
<path d="M42.4304 9.89739H41.1971V8.66303C41.1971 7.98515 40.6416 7.42969 39.9637 7.42969C39.2848 7.42969 38.7304 7.98515 38.7304 8.66303V9.89739H37.497C36.8181 9.89739 36.2637 10.4518 36.2637 11.1307C36.2637 11.8086 36.8181 12.3641 37.497 12.3641H38.7304V13.5974C38.7304 14.2753 39.2848 14.8307 39.9637 14.8307C40.6416 14.8307 41.1971 14.2753 41.1971 13.5974V12.3641H42.4304C43.1083 12.3641 43.6638 11.8086 43.6638 11.1307C43.6638 10.4518 43.1083 9.89739 42.4304 9.89739Z" fill="#5A46E6" fill-opacity="0.15"/>
<path d="M10.371 33.3329V34.5663H9.13765C8.45977 34.5663 7.9043 35.1207 7.9043 35.7996C7.9043 36.4775 8.45977 37.033 9.13765 37.033H10.371V38.2663C10.371 38.9442 10.9265 39.4996 11.6044 39.4996C12.2833 39.4996 12.8377 38.9442 12.8377 38.2663V37.033H14.0711C14.75 37.033 15.3054 36.4775 15.3054 35.7996C15.3054 35.1207 14.75 34.5663 14.0711 34.5663H12.8377V33.3329C12.8377 32.654 12.2833 32.0996 11.6044 32.0996C10.9265 32.0996 10.371 32.654 10.371 33.3329Z" fill="#5A46E6" fill-opacity="0.15"/>
<path d="M70.8093 34.5663H69.576V33.3329C69.576 32.654 69.0215 32.0996 68.3426 32.0996C67.6648 32.0996 67.1093 32.654 67.1093 33.3329V34.5663H65.8759C65.198 34.5663 64.6426 35.1207 64.6426 35.7996C64.6426 36.4775 65.198 37.033 65.8759 37.033H67.1093V38.2663C67.1093 38.9442 67.6648 39.4996 68.3426 39.4996C69.0215 39.4996 69.576 38.9442 69.576 38.2663V37.033H70.8093C71.4882 37.033 72.0427 36.4775 72.0427 35.7996C72.0427 35.1207 71.4882 34.5663 70.8093 34.5663Z" fill="#5A46E6" fill-opacity="0.15"/>
<mask id="mask1_3912_9393" style="mask-type:luminance" maskUnits="userSpaceOnUse" x="0" y="0" width="80" height="58">
<path d="M0.5 0H79.5003V57.8105H0.5V0Z" fill="white"/>
</mask>
<g mask="url(#mask1_3912_9393)">
<path d="M68.3374 24.6981C67.4744 24.6981 66.672 24.8215 65.9324 24.9449C63.0337 18.3462 57.6683 13.1043 51.0695 10.2673C50.5767 4.59434 45.8275 0.0302734 39.9693 0.0302734C34.1101 0.0302734 29.3619 4.59434 28.9298 10.2673C22.2693 13.1043 16.9656 18.3462 14.0669 24.9449C13.2655 24.8215 12.4642 24.6981 11.6002 24.6981C5.49512 24.6981 0.5 29.6942 0.5 35.7991C0.5 41.9041 5.49512 46.8992 11.6002 46.8992C12.2791 46.8992 12.8952 46.8374 13.5741 46.715C15.2395 50.9078 17.8297 54.6705 21.1594 57.5682C21.7766 57.0138 22.4545 56.52 23.1951 56.0273C20.0495 53.3138 17.5211 49.8596 15.9791 45.9744C19.9878 44.309 22.7631 40.3622 22.7631 35.7374C22.7631 31.2968 20.1729 27.535 16.4112 25.7473C18.9396 20.0733 23.5027 15.5092 29.0533 12.9191C29.9163 18.2228 34.4804 22.2314 39.9693 22.2314C45.4582 22.2314 50.0213 18.2228 50.8843 12.9191C56.4966 15.5709 60.999 20.135 63.5274 25.7473C59.8274 27.5968 57.2373 31.3585 57.2373 35.7991C57.2373 40.3622 60.0126 44.309 64.0202 46.0361C62.4793 49.9213 59.9508 53.3755 56.8052 56.088C57.5448 56.52 58.2237 57.0138 58.8399 57.6299C62.1707 54.6705 64.7608 50.9695 66.4262 46.7768C67.0423 46.8992 67.7213 46.9609 68.3991 46.9609C74.5052 46.9609 79.5003 41.9658 79.5003 35.8608C79.5003 29.7548 74.4435 24.6981 68.3374 24.6981ZM20.2347 35.7991C20.2347 40.5473 16.3494 44.4325 11.6002 44.4325C6.85191 44.4325 2.9667 40.5473 2.9667 35.7991C2.9667 31.0499 6.85191 27.1647 11.6002 27.1647C16.3494 27.1647 20.2347 31.0499 20.2347 35.7991ZM39.9693 19.7647C35.22 19.7647 31.3348 15.8795 31.3348 11.1313C31.3348 6.38212 35.22 2.49695 39.9693 2.49695C44.7176 2.49695 48.6028 6.38212 48.6028 11.1313C48.6028 15.8795 44.7176 19.7647 39.9693 19.7647ZM68.3374 44.4325C63.5892 44.4325 59.704 40.5473 59.704 35.7991C59.704 31.0499 63.5892 27.1647 68.3374 27.1647C73.0867 27.1647 76.9719 31.0499 76.9719 35.7991C76.9719 40.5473 73.0867 44.4325 68.3374 44.4325Z" fill="#5A46E6" fill-opacity="0.15"/>
</g>
</svg>
