<svg width="96" height="84" viewBox="0 0 96 84" fill="none" xmlns="http://www.w3.org/2000/svg">
<mask id="mask0_3912_3912" style="mask-type:luminance" maskUnits="userSpaceOnUse" x="11" y="33" width="58" height="63">
<path d="M29.9004 33.7539L68.0246 48.3334L49.9213 95.672L11.7971 81.0925L29.9004 33.7539Z" fill="white"/>
</mask>
<g mask="url(#mask0_3912_3912)">
<path d="M48.5444 71.3445L45.1461 70.0449L45.7189 68.5471C48.2363 67.6607 50.4067 65.7837 51.5926 63.201C57.4924 59.5146 57.6007 53.8778 57.4556 51.8411C59.7006 49.5962 58.9886 45.759 58.9971 45.564C58.9353 45.21 58.6772 44.8481 58.3313 44.7159C58.0075 44.5259 57.5392 44.544 57.1984 44.744C55.5397 45.6284 53.4484 45.2251 51.4886 43.6166C48.8106 41.4703 45.8233 40.1297 45.708 40.0856C45.4784 39.9978 43.2752 39.023 41.2275 39.8908C40.3509 40.2824 39.6612 40.8765 39.1148 41.7898C38.5163 41.627 37.7593 41.5358 36.8912 41.7324C35.4089 42.1556 34.2029 43.4113 33.388 45.5423C31.502 50.3011 31.918 55.0823 32.0269 56.1801C31.4065 58.3205 31.5791 60.631 32.4821 62.7593C32.6596 63.1564 32.8596 63.4972 33.0597 63.838L32.5309 65.2206L29.1326 63.921C23.9482 61.9384 18.2143 64.4999 16.2761 69.568L12.7515 78.7847C12.2668 80.052 12.9071 81.4851 14.1744 81.9698L47.5839 94.7463C48.8512 95.231 50.2843 94.5907 50.769 93.3235L54.2937 84.1067C56.2318 79.0386 53.6712 73.3051 48.5444 71.3445ZM45.9588 78.2784C46.592 78.5205 46.9124 79.2378 46.6703 79.8709C46.4278 80.505 45.7109 80.8245 45.0778 80.5824C44.4436 80.3399 44.1238 79.624 44.3663 78.9898C44.6084 78.3567 45.3247 78.0359 45.9588 78.2784ZM34.5188 51.3887C34.7017 49.8739 35.0309 48.1518 35.6919 46.4234C36.1986 45.0985 36.8383 44.287 37.5114 44.0818C38.2418 43.8997 38.9245 44.3579 38.9245 44.3579C39.2263 44.6055 39.6509 44.7018 40.027 44.5824C40.4034 44.4621 40.7086 44.1823 40.8629 43.7788C41.1356 42.893 41.5286 42.3836 42.1431 42.1561C43.0198 41.7645 44.2155 42.0907 44.5973 42.3017C44.654 42.3234 47.4683 43.5979 49.8231 45.5556C52.0494 47.331 54.4195 48.0391 56.5885 47.5482C56.5455 48.5218 56.2779 49.7399 55.3937 50.3268C55.0092 50.6412 54.7752 51.0804 54.9091 51.5941C54.8871 51.6518 55.6338 55.5683 52.8109 58.9787C52.976 56.9946 52.6872 54.6397 50.8563 53.2126C50.763 53.1109 50.6477 53.0668 50.5325 53.0227C50.4181 52.979 50.2452 52.9129 50.1078 52.9264C50.0502 52.9044 46.7509 52.8981 44.5046 52.0391C41.1418 50.8192 39.9611 49.2443 39.9611 49.2443C39.7034 48.8814 39.3225 48.6708 38.8532 48.6885C37.0331 48.7854 35.5745 50.0106 34.5188 51.3887ZM34.6255 56.1177C35.278 54.5843 36.7251 51.8371 38.4679 51.2481C39.236 52.0044 40.8007 53.2635 43.6235 54.343C45.6969 55.1359 48.4604 55.3337 49.5713 55.3632C50.6541 56.5031 50.4597 58.7392 50.0955 60.3829L49.4209 61.974C47.8076 65.847 43.1979 67.7151 39.1078 66.151C37.0921 65.3801 35.499 63.8469 34.6672 61.878C33.9506 59.9531 33.9208 57.9605 34.6255 56.1177ZM42.8632 69.1058L41.894 71.6404L36.0783 74.7642L33.8301 68.5565L34.7552 66.1373C35.7092 67.0957 36.9459 67.833 38.2488 68.3973C38.3065 68.4193 38.3641 68.4414 38.3641 68.4414C39.862 69.0142 41.3765 69.198 42.8632 69.1058ZM48.465 92.4424L45.009 91.1207L45.67 89.3923C45.9122 88.7592 45.5917 88.0419 44.9586 87.7998C44.3245 87.5573 43.6082 87.8781 43.3661 88.5112L42.7051 90.2397L20.8163 81.8689L21.4773 80.1405C21.7195 79.5073 21.399 78.7901 20.7659 78.548C20.1318 78.3055 19.4155 78.6262 19.1734 79.2594L18.5124 80.9878L15.0554 79.6658L18.5801 70.4491C19.8797 67.0508 23.4357 65.1762 26.9402 65.8556L25.4201 69.8304C23.985 69.6119 22.5654 70.3895 22.037 71.7711L20.9355 74.6515C20.693 75.2856 21.0128 76.0015 21.647 76.244C22.2801 76.4862 22.997 76.1667 23.2395 75.5326L24.341 72.6522C24.4729 72.3073 24.7907 72.1645 25.1366 72.2968L26.2886 72.7373C26.6345 72.8696 26.7769 73.1883 26.645 73.5333L25.5435 76.4137C25.301 77.0478 25.6208 77.7637 26.2549 78.0062C26.8881 78.2483 27.6049 77.9289 27.8474 77.2948L28.949 74.4144C29.4773 73.0328 28.9388 71.5064 27.7241 70.7115L29.2882 66.6214L31.5922 67.5025L31.3497 68.1366C31.2399 68.4239 31.267 68.6986 31.3517 68.9953L34.0893 76.5123L31.3355 83.7133C31.0933 84.3465 31.4128 85.0633 32.0469 85.3058C32.6801 85.548 33.3973 85.2276 33.6395 84.5944L36.3933 77.3934L43.4481 73.6212C43.7092 73.4568 43.9127 73.2703 44.0225 72.983L44.265 72.3489L46.569 73.23L45.5998 75.7645C44.0985 75.719 42.6348 76.6119 42.0623 78.1087C41.3352 80.0101 42.2949 82.1601 44.1963 82.8873C46.0968 83.614 48.2471 82.6534 48.9743 80.752C49.5467 79.2551 49.0523 77.6134 47.9037 76.6456L48.8289 74.2263C51.8915 76.0583 53.2893 79.8274 51.9897 83.2256L48.465 92.4424Z" fill="white" fill-opacity="0.15"/>
</g>
<path d="M39.6518 63.3207L40.9767 63.8273C41.6108 64.0699 42.3267 63.75 42.5692 63.1159C42.8114 62.4828 42.4919 61.7659 41.8578 61.5234L40.5328 61.0167C39.8997 60.7746 39.1825 61.095 38.9403 61.7281C38.6978 62.3623 39.0186 63.0785 39.6518 63.3207Z" fill="white" fill-opacity="0.15"/>
<path d="M40.5368 57.0567C40.5037 57.1431 40.4629 57.2267 40.4129 57.3056C40.3629 57.3845 40.3064 57.4575 40.2419 57.5254C40.1787 57.5926 40.108 57.6537 40.0324 57.7074C39.9568 57.7611 39.8763 57.8074 39.7913 57.8453C39.7054 57.883 39.6181 57.9124 39.5277 57.9329C39.4359 57.9539 39.3446 57.9653 39.251 57.968C39.1584 57.9711 39.0653 57.9642 38.9735 57.9478C38.8824 57.9328 38.7926 57.9083 38.7051 57.8749C38.6187 57.8418 38.5355 57.8001 38.4566 57.7501C38.3783 57.7014 38.3043 57.6445 38.2374 57.5804C38.1695 57.5159 38.1091 57.4465 38.0548 57.3696C38.0011 57.294 37.9548 57.2135 37.9168 57.1285C37.8788 57.0435 37.8498 56.9553 37.8293 56.8649C37.8088 56.7744 37.7969 56.6818 37.7947 56.5895C37.792 56.496 37.7986 56.4038 37.814 56.3117C37.8294 56.2195 37.8548 56.1301 37.8879 56.0437C37.9213 55.9562 37.9617 55.8737 38.0117 55.7948C38.0617 55.7159 38.1182 55.6428 38.1827 55.575C38.2459 55.5077 38.3166 55.4466 38.3922 55.393C38.4678 55.3393 38.5483 55.293 38.6333 55.255C38.7183 55.217 38.8065 55.188 38.8973 55.1665C38.9887 55.1464 39.08 55.1351 39.1736 55.1323C39.2662 55.1292 39.3593 55.1362 39.4505 55.1512C39.5423 55.1676 39.632 55.192 39.7185 55.2251C39.8059 55.2585 39.8891 55.3002 39.9674 55.3489C40.0463 55.3989 40.1203 55.4558 40.1872 55.5199C40.2551 55.5844 40.3155 55.6538 40.3702 55.7298C40.4235 55.8063 40.4689 55.8865 40.5078 55.9718C40.5458 56.0568 40.5748 56.145 40.5953 56.2355C40.6158 56.3259 40.6277 56.4186 40.6299 56.5108C40.6326 56.6044 40.626 56.6965 40.6106 56.7887C40.5952 56.8808 40.5702 56.9692 40.5368 57.0567Z" fill="white" fill-opacity="0.15"/>
<path d="M47.2115 59.6098C47.1785 59.6962 47.1368 59.7794 47.0868 59.8583C47.0377 59.9376 46.9812 60.0106 46.9167 60.0785C46.8525 60.1454 46.7828 60.2068 46.7072 60.2605C46.6306 60.3138 46.5502 60.3601 46.4651 60.3981C46.3801 60.4361 46.2919 60.4651 46.2015 60.4856C46.1107 60.507 46.0184 60.518 45.9258 60.5211C45.8322 60.5239 45.7401 60.5173 45.6483 60.5009C45.5562 60.4855 45.4674 60.4614 45.3799 60.428C45.2935 60.3949 45.2103 60.3532 45.1314 60.3032C45.0521 60.2542 44.9791 60.1976 44.9112 60.1331C44.8443 60.069 44.7829 59.9992 44.7296 59.9227C44.6759 59.8471 44.6296 59.7666 44.5916 59.6816C44.5536 59.5966 44.5246 59.5084 44.5041 59.418C44.4827 59.3272 44.4717 59.2349 44.4686 59.1423C44.4658 59.0487 44.4724 58.9565 44.4888 58.8648C44.5042 58.7726 44.5286 58.6829 44.5617 58.5964C44.5951 58.509 44.6365 58.4268 44.6865 58.3479C44.7355 58.2686 44.7921 58.1955 44.8566 58.1277C44.9207 58.0608 44.9904 57.9994 45.067 57.9461C45.1426 57.8924 45.2231 57.8461 45.3081 57.8081C45.3931 57.7701 45.4813 57.7411 45.5721 57.7196C45.6625 57.6991 45.7548 57.6882 45.8474 57.685C45.941 57.6823 46.0332 57.6889 46.1253 57.7043C46.217 57.7207 46.3068 57.7451 46.3933 57.7782C46.4807 57.8116 46.5629 57.853 46.6422 57.902C46.7211 57.952 46.7942 58.0086 46.862 58.073C46.9289 58.1372 46.9903 58.2069 47.044 58.2825C47.0973 58.3591 47.1436 58.4396 47.1816 58.5246C47.2196 58.6096 47.2486 58.6978 47.2701 58.7886C47.2906 58.879 47.3015 58.9713 47.3047 59.0639C47.3074 59.1575 47.3008 59.2496 47.2844 59.3414C47.269 59.4335 47.245 59.5223 47.2115 59.6098Z" fill="white" fill-opacity="0.15"/>
<path d="M57.8433 24.7196L56.6913 24.279L57.1323 23.1261C57.3744 22.4929 57.054 21.7757 56.4208 21.5335C55.7867 21.291 55.0704 21.6118 54.8283 22.245L54.3874 23.3979L53.2354 22.9574C52.6013 22.7149 51.8854 23.0347 51.6429 23.6688C51.4007 24.302 51.7202 25.0188 52.3543 25.2613L53.5063 25.7019L53.0658 26.8538C52.8236 27.487 53.1431 28.2039 53.7772 28.4464C54.4104 28.6885 55.1276 28.3681 55.3697 27.7349L55.8103 26.583L56.9623 27.0235C57.5954 27.2656 58.3127 26.9452 58.5548 26.3121C58.7973 25.678 58.4765 24.9617 57.8433 24.7196Z" fill="white" fill-opacity="0.15"/>
<path d="M19.5275 35.1571L19.087 36.3091L17.935 35.8685C17.3018 35.6264 16.5849 35.9458 16.3424 36.5799C16.1003 37.2131 16.4207 37.9303 17.0539 38.1725L18.2059 38.613L17.7653 39.765C17.5232 40.3981 17.8436 41.1154 18.4768 41.3575C19.1109 41.6 19.8272 41.2792 20.0693 40.6461L20.5099 39.4941L21.6618 39.9346C22.296 40.1772 23.0132 39.8567 23.2553 39.2236C23.4978 38.5895 23.177 37.8732 22.5429 37.6307L21.3909 37.1902L21.8315 36.0382C22.074 35.4041 21.7541 34.6882 21.12 34.4457C20.4869 34.2035 19.77 34.523 19.5275 35.1571Z" fill="white" fill-opacity="0.15"/>
<path d="M75.539 57.8973L74.387 57.4568L74.8276 56.3048C75.0701 55.6707 74.7502 54.9548 74.1161 54.7123C73.483 54.4701 72.7661 54.7896 72.5236 55.4237L72.0831 56.5757L70.9311 56.1351C70.2979 55.893 69.581 56.2124 69.3385 56.8465C69.0964 57.4797 69.4168 58.1969 70.05 58.4391L71.202 58.8796L70.7614 60.0316C70.5193 60.6647 70.8397 61.382 71.4729 61.6241C72.107 61.8666 72.8233 61.5458 73.0654 60.9127L73.5059 59.7607L74.6579 60.2012C75.2921 60.4438 76.0083 60.123 76.2505 59.4898C76.493 58.8557 76.1731 58.1398 75.539 57.8973Z" fill="white" fill-opacity="0.15"/>
<mask id="mask1_3912_3912" style="mask-type:luminance" maskUnits="userSpaceOnUse" x="1" y="0" width="96" height="83">
<path d="M22.2148 0.49707L96.0036 28.7155L75.354 82.7123L1.5653 54.4939L22.2148 0.49707Z" fill="white"/>
</mask>
<g mask="url(#mask1_3912_3912)">
<path d="M76.7542 47.7969C75.9481 47.4887 75.1546 47.3174 74.4197 47.1685C74.0692 39.9697 70.9301 33.157 65.7799 28.1502C67.3461 22.6755 64.5404 16.7161 59.0687 14.6236C53.596 12.5307 47.5307 15.0976 45.1009 20.242C37.8664 20.5128 31.0402 23.5144 25.9756 28.6424C25.2713 28.2409 24.5669 27.8394 23.7598 27.5308C18.0576 25.3501 11.6074 28.2324 9.42672 33.9346C7.24607 39.6368 10.1275 46.0866 15.8298 48.2673C16.4639 48.5098 17.0614 48.6722 17.7393 48.8004C17.7972 53.3114 18.8724 57.7511 20.9475 61.647C21.722 61.3496 22.5315 61.1305 23.3993 60.9349C21.4304 57.2767 20.3026 53.1473 20.2502 48.9677C24.5892 48.844 28.5912 46.1488 30.2432 41.8292C31.8293 37.6815 30.7537 33.2427 27.8787 30.2292C32.267 25.8327 38.1593 23.1996 44.2689 22.763C43.1806 28.0251 46.0118 33.3995 51.1386 35.3601C56.2653 37.3207 61.9593 35.2064 64.6598 30.5609C68.9546 35.0425 71.5298 40.9137 71.8867 47.0588C67.7701 47.4647 64.0072 50.0531 62.421 54.2008C60.7912 58.4628 61.9736 63.1406 65.0999 66.1853C62.2729 69.2637 58.6775 71.5869 54.7705 72.9969C55.307 73.6646 55.7647 74.3682 56.1201 75.1638C60.2883 73.5894 64.0295 71.0577 67.0826 67.7364C67.6144 68.0709 68.2265 68.371 68.8597 68.6131C74.5629 70.7942 81.0127 67.9129 83.1934 62.2106C85.3744 56.5074 82.4574 49.978 76.7542 47.7969ZM27.8595 40.9837C26.1635 45.4186 21.1468 47.6597 16.7108 45.9633C12.2758 44.2673 10.0347 39.2506 11.7307 34.8157C13.4271 30.3798 18.4438 28.1387 22.8788 29.8347C27.3147 31.5311 29.5559 36.5478 27.8595 40.9837ZM52.0196 33.0561C47.5837 31.3597 45.3425 26.3431 47.0386 21.9081C48.7349 17.4722 53.7516 15.2311 58.1876 16.9275C62.6226 18.6236 64.8637 23.6402 63.1673 28.0761C61.4713 32.5111 56.4547 34.7522 52.0196 33.0561ZM69.7052 66.2295C65.2701 64.5335 63.029 59.5168 64.725 55.0819C66.4214 50.6459 71.4381 48.4048 75.8731 50.1009C80.3091 51.7973 82.5502 56.8139 80.8538 61.2499C79.1578 65.6848 74.1411 67.9259 69.7052 66.2295Z" fill="white" fill-opacity="0.15"/>
</g>
</svg>
