<svg width="127.217896" height="48.766846" viewBox="0 0 127.218 48.7668" fill="none" xmlns="http://www.w3.org/2000/svg" xmlns:xlink="http://www.w3.org/1999/xlink">
	<desc>
			Created with Pixso.
	</desc>
	<defs/>
	<g style="mix-blend-mode:normal">
		<path id="Path 14" d="M127.21 13.72L127.21 37.48L115.93 48.76L0 48.76L0 18.1L18.1 0L113.49 0C121.07 0 127.21 6.14 127.21 13.72Z" fill="#5A46E6" fill-opacity="1.000000" fill-rule="nonzero"/>
	</g>
	<g style="mix-blend-mode:normal">
		<path id="Path 15" d="M100.45 13.03L88.5 13.03L83.93 17.61L83.93 8.2L78.03 12.48L78.03 30.91L76.76 30.91C75.35 30.91 74.2 29.81 74.11 28.43L74.11 25.72C74.11 17.43 70.77 13.32 64.6 13.32C59.14 13.32 55.21 17.96 50.15 23.02L50.15 27.45C50.15 34.01 55.22 36.2 58.5 36.2C62.74 36.2 66.21 32.66 67.17 31.12L66.81 30.65C63.15 32.75 55.99 31.5 55.99 22.5L55.99 19.52C57.23 18.97 58.57 18.61 59.9 18.61C66.53 18.61 68.17 21.87 68.17 27.89L68.17 30.26L68.17 32.12C68.17 37.04 64.98 41.09 61.9 42.77L62.25 43.19C67.77 41.67 71.18 37.63 72.85 33.77C74.27 35.07 76.16 35.87 78.23 35.87L99.2 35.87C99.2 35.87 110.29 29.58 110.29 21.62C110.29 15.92 105.27 13.03 100.45 13.03ZM103.2 30.91L83.93 30.91L83.93 19.21C85.01 18.42 86.32 17.99 87.67 17.99L93.99 17.99C100.55 17.99 104.43 19.66 104.43 25.82C104.43 28.46 103.2 30.91 103.2 30.91Z" fill="#FFFFFF" fill-opacity="1.000000" fill-rule="nonzero"/>
	</g>
	<g style="mix-blend-mode:normal">
		<path id="Path 16" d="M51 7.89L45.68 11.76L45.68 15.17L36.6 15.17L32.99 19.63L33.15 19.63L35.01 19.63C40.12 19.63 41.35 22.81 41.35 25.89C41.35 28.91 40.21 30.91 40.21 30.91L30.53 30.91C25.52 30.91 22.83 30.16 22.83 23.99L22.83 19.26L16.93 23.71C16.93 24.65 16.95 24.87 16.93 25.87C16.68 36.39 23.45 35.87 30.18 35.87L36.55 35.87C36.55 35.87 47.64 31.22 47.64 24.67C47.64 21.88 45.83 20.11 43.33 19.14C44.02 18.87 44.67 18.49 45.25 18.01L49.88 14.13C50.59 13.54 51 12.66 51 11.73L51 7.89Z" fill="#FFFFFF" fill-opacity="1.000000" fill-rule="nonzero"/>
	</g>
	<g style="mix-blend-mode:normal">
		<circle id="Ellipse 2" r="3.228627" transform="matrix(0.707107 -0.707107 0.707107 0.707107 46.6763 36.5751)" fill="#FFFFFF" fill-opacity="1.000000"/>
	</g>
</svg>
