<svg width="152.148193" height="58.323242" viewBox="0 0 152.148 58.3232" fill="none" xmlns="http://www.w3.org/2000/svg" xmlns:xlink="http://www.w3.org/1999/xlink">
	<desc>
			Created with Pixso.
	</desc>
	<defs/>
	<g style="mix-blend-mode:normal">
		<path id="Path 14" d="M152.14 16.41L152.14 44.82L138.65 58.32L0 58.32L0 21.65L21.65 0L135.73 0C144.79 0 152.14 7.35 152.14 16.41Z" fill="#FFFFFF" fill-opacity="1.000000" fill-rule="nonzero"/>
	</g>
	<g style="mix-blend-mode:normal">
		<path id="Path 15" d="M120.14 15.59L105.84 15.59L100.38 21.06L100.38 9.8L93.32 14.92L93.32 36.97L91.8 36.97C90.12 36.97 88.74 35.66 88.64 34L88.64 30.76C88.64 20.85 84.64 15.93 77.27 15.93C70.73 15.93 66.03 21.48 59.98 27.53L59.98 32.84C59.98 40.67 66.05 43.29 69.96 43.29C75.04 43.29 79.19 39.06 80.34 37.22L79.91 36.66C75.52 39.17 66.96 37.68 66.96 26.91L66.96 23.34C68.44 22.69 70.05 22.26 71.64 22.26C79.57 22.26 81.53 26.15 81.53 33.35L81.53 36.19L81.53 38.42C81.53 44.3 77.72 49.14 74.03 51.16L74.45 51.66C81.05 49.83 85.13 45.01 87.13 40.39C88.82 41.95 91.08 42.9 93.57 42.9L118.64 42.9C118.64 42.9 131.9 35.38 131.9 25.86C131.9 19.04 125.9 15.59 120.14 15.59ZM123.42 36.97L100.38 36.97L100.38 22.97C101.68 22.03 103.24 21.52 104.86 21.52L112.41 21.52C120.25 21.52 124.9 23.51 124.9 30.89C124.9 34.04 123.42 36.97 123.42 36.97Z" fill="#5643DB" fill-opacity="1.000000" fill-rule="nonzero"/>
	</g>
	<g style="mix-blend-mode:normal">
		<path id="Path 16" d="M60.99 9.44L54.64 14.07L54.64 18.14L43.77 18.14L39.45 23.47L39.65 23.47L41.87 23.47C47.98 23.47 49.46 27.28 49.46 30.96C49.46 34.57 48.1 36.97 48.1 36.97L36.51 36.97C30.52 36.97 27.31 36.07 27.31 28.69L27.31 23.04L20.24 28.36C20.24 29.48 20.27 29.74 20.24 30.94C19.95 43.52 28.05 42.9 36.09 42.9L43.72 42.9C43.72 42.9 56.98 37.34 56.98 29.5C56.98 26.17 54.81 24.06 51.82 22.9C52.65 22.57 53.42 22.12 54.11 21.54L59.65 16.9C60.5 16.19 60.99 15.14 60.99 14.03L60.99 9.44Z" fill="#5643DB" fill-opacity="1.000000" fill-rule="nonzero"/>
	</g>
	<g style="mix-blend-mode:normal">
		<circle id="Ellipse 2" r="3.861327" transform="matrix(0.707107 -0.707107 0.707107 0.707107 55.8232 43.7427)" fill="#5643DB" fill-opacity="1.000000"/>
	</g>
</svg>
