<svg width="800" height="307" viewBox="0 0 800 307" fill="none" xmlns="http://www.w3.org/2000/svg">
<path d="M800 86.3268V235.709L729.043 306.667H0V113.855L113.843 9.9659e-05H713.673C761.351 9.9659e-05 800 38.6494 800 86.3268Z" fill="#5A46E6"/>
<path d="M648.987 194.412H527.849V120.807C534.641 115.877 542.855 113.164 551.359 113.164H591.097C632.309 113.164 656.738 123.636 656.738 162.424C656.738 179.023 648.987 194.412 648.987 194.412ZM631.703 81.988H556.551L527.849 110.768V51.576L490.709 78.4973V194.412H482.706C473.854 194.412 466.634 187.511 466.083 178.799V161.771C466.083 109.649 445.077 83.8067 406.289 83.8067C371.95 83.8067 347.205 112.989 315.393 144.801V172.68C315.393 213.892 347.295 227.661 367.902 227.661C394.593 227.661 416.386 205.407 422.447 195.709L420.181 192.801C397.123 205.976 352.095 198.135 352.095 141.516V122.752C359.902 119.347 368.333 117.08 376.701 117.08C418.41 117.08 428.726 137.528 428.726 175.407V190.303V202.028C428.726 232.937 408.665 258.392 389.279 269.007L391.483 271.633C426.199 262.045 447.646 236.687 458.159 212.381C467.065 220.577 478.949 225.588 492.006 225.588H623.825C623.825 225.587 693.574 186.057 693.574 135.999C693.574 100.143 662.006 81.988 631.703 81.988Z" fill="white"/>
<path d="M320.721 49.6481L287.314 73.9881V95.4054H230.187L207.461 123.441H208.515H220.187C252.307 123.441 260.066 143.477 260.066 162.813C260.066 181.817 252.915 194.412 252.915 194.412H192.003C160.489 194.412 143.606 189.696 143.606 150.9V121.164L106.466 149.137C106.466 155.032 106.613 156.419 106.466 162.723C104.935 228.835 147.491 225.588 189.805 225.588H229.885C229.885 225.588 299.634 196.363 299.634 155.151C299.634 137.652 288.206 126.52 272.507 120.421C276.849 118.719 280.925 116.325 284.554 113.285L313.671 88.8974C318.139 85.1547 320.721 79.6267 320.721 73.7987V49.6481Z" fill="white"/>
<path d="M293.521 209.697C282.308 209.697 273.218 218.787 273.218 229.999C273.218 241.213 282.308 250.303 293.521 250.303C304.734 250.303 313.824 241.213 313.824 229.999C313.824 218.787 304.734 209.697 293.521 209.697Z" fill="white"/>
</svg>
