<svg width="127.743164" height="48.968201" viewBox="0 0 127.743 48.9682" fill="none" xmlns="http://www.w3.org/2000/svg" xmlns:xlink="http://www.w3.org/1999/xlink">
	<desc>
			Created with Pixso.
	</desc>
	<defs/>
	<g style="mix-blend-mode:normal">
		<path id="Path 86269" d="M127.74 13.78L127.74 37.63L116.41 48.96L0 48.96L0 18.18L18.17 0L113.95 0C121.57 0 127.74 6.17 127.74 13.78Z" fill="#5A46E6" fill-opacity="1.000000" fill-rule="nonzero"/>
	</g>
	<g style="mix-blend-mode:normal">
		<path id="Path 86270" d="M50.19 32.66L45.57 32.66C43.22 32.66 41.31 30.76 41.31 28.41L41.31 16.55L35.38 20.85L35.38 29.38C35.38 33.92 39.07 37.61 43.62 37.61L50.19 37.61C52.17 35.95 54.15 34.29 56.12 32.64L56.12 16.55L50.19 20.85L50.19 32.66Z" fill="#FFFFFF" fill-opacity="1.000000" fill-rule="nonzero"/>
	</g>
	<g style="mix-blend-mode:normal">
		<path id="Path 86271" d="M23.7 10.28L17.77 14.58L17.77 31.03C17.77 34.67 20.72 37.61 24.35 37.61L27.51 37.61L32.06 33.17L32.06 32.66L26.99 32.66C25.18 32.66 23.7 31.19 23.7 29.37L23.7 21.67L27.51 21.67L32.06 17.16L32.06 16.64L23.7 16.64L23.7 10.28Z" fill="#FFFFFF" fill-opacity="1.000000" fill-rule="nonzero"/>
	</g>
	<g style="mix-blend-mode:normal">
		<path id="Path 86272" d="M75.83 14.83C71.57 14.83 68.09 18.38 67.12 19.93L67.49 20.4C71.17 18.29 78.36 19.54 78.36 28.58L78.36 31.58C77.11 32.12 75.76 32.49 74.43 32.49C67.77 32.49 66.12 29.22 66.12 23.17L66.12 10.13L60.16 14.45L60.16 25.35C60.16 33.67 63.51 37.8 69.71 37.8C75.19 37.8 79.14 33.14 84.22 28.06L84.22 23.61C84.22 17.03 79.12 14.83 75.83 14.83Z" fill="#FFFFFF" fill-opacity="1.000000" fill-rule="nonzero"/>
	</g>
	<g style="mix-blend-mode:normal">
		<path id="Path 86273" d="M101.19 14.15C95.71 14.15 91.75 18.81 86.67 23.89L86.67 28.34C86.67 34.92 91.77 37.12 95.06 37.12C99.32 37.12 102.8 33.57 103.77 32.02L103.41 31.56C99.73 33.66 92.53 32.41 92.53 23.37L92.53 20.37C93.78 19.83 95.13 19.46 96.46 19.46C103.12 19.46 104.77 22.73 104.77 28.78L104.77 37.52L110.74 33.19L110.74 26.6C110.74 18.28 107.38 14.15 101.19 14.15Z" fill="#FFFFFF" fill-opacity="1.000000" fill-rule="nonzero"/>
	</g>
</svg>
