<svg width="48" height="48" viewBox="0 0 48 48" fill="none" xmlns="http://www.w3.org/2000/svg">
<mask id="mask0_3912_9373" style="mask-type:luminance" maskUnits="userSpaceOnUse" x="11" y="17" width="26" height="31">
<path d="M11.5801 17.2061H36.3801V48.0001H11.5801V17.2061Z" fill="white"/>
</mask>
<g mask="url(#mask0_3912_9373)">
<path d="M30.3173 34.4923H28.1066V33.5179C29.3429 32.4686 30.1673 30.9323 30.2798 29.2092C32.8279 25.8368 31.666 22.6143 31.1416 21.4899C31.9285 19.7287 30.6916 17.7056 30.6541 17.5931C30.5423 17.4056 30.3173 17.2562 30.0923 17.2562C29.8673 17.2187 29.6054 17.3306 29.4554 17.5181C28.706 18.38 27.4316 18.605 25.9704 18.1175C23.9848 17.4806 21.9985 17.3681 21.9235 17.3681C21.7741 17.3681 20.3123 17.2931 19.3385 18.23C18.926 18.6425 18.6635 19.1293 18.5516 19.7662C18.1766 19.8037 17.7273 19.9162 17.2773 20.2162C16.5279 20.7781 16.116 21.7524 16.116 23.1387C16.0785 26.2486 17.3523 28.8717 17.6523 29.4711C17.7648 30.8205 18.3641 32.0942 19.3385 33.1061C19.5254 33.2929 19.7129 33.4429 19.9004 33.5929V34.4923H17.6898C14.3173 34.4923 11.6191 37.1904 11.6191 40.4872V46.4828C11.6191 47.3071 12.2935 47.9815 13.1179 47.9815H34.851C35.6754 47.9815 36.3498 47.3071 36.3498 46.4828V40.4872C36.3498 37.1904 33.6523 34.4923 30.3173 34.4923ZM30.3548 38.9885C30.7666 38.9885 31.1041 39.326 31.1041 39.7379C31.1041 40.1504 30.7666 40.4872 30.3548 40.4872C29.9423 40.4872 29.6054 40.1504 29.6054 39.7379C29.6054 39.326 29.9423 38.9885 30.3548 38.9885ZM18.0266 26.2111C17.8016 25.3118 17.6148 24.263 17.6148 23.1387C17.6148 22.2768 17.8016 21.6774 18.1391 21.4149C18.5141 21.1531 19.001 21.2649 19.001 21.2649C19.226 21.3399 19.4879 21.3024 19.6754 21.1531C19.8629 21.0031 19.9754 20.7781 19.9754 20.5156C19.9379 19.9537 20.0504 19.5793 20.3498 19.3168C20.7623 18.9043 21.5116 18.83 21.7741 18.8668C21.811 18.8668 23.6848 18.9793 25.446 19.5793C27.0948 20.1037 28.5935 19.9912 29.7179 19.2418C29.9048 19.8037 30.0173 20.5531 29.6429 21.0781C29.4929 21.3399 29.4554 21.6399 29.6429 21.9024C29.6429 21.9399 30.9166 24.0005 30.0548 26.5486C29.7179 25.3868 29.0429 24.113 27.6941 23.7005C27.6191 23.663 27.5441 23.663 27.4691 23.663C27.3948 23.663 27.2823 23.663 27.2073 23.7005C27.1698 23.7005 25.296 24.413 23.8348 24.413C21.6616 24.4505 20.6498 23.813 20.6498 23.813C20.4248 23.663 20.1629 23.6262 19.9004 23.738C18.8885 24.188 18.3266 25.1999 18.0266 26.2111ZM19.1135 28.8717C19.151 27.8599 19.376 25.9868 20.2373 25.2743C20.8373 25.5368 21.9985 25.9118 23.8348 25.9118C25.1835 25.9118 26.7948 25.4243 27.4316 25.1999C28.2935 25.6118 28.6685 26.923 28.8185 27.9349L28.781 28.9842C28.706 31.5323 26.4954 33.5929 23.8348 33.5929C22.5235 33.5929 21.2866 33.0686 20.3873 32.1317C19.5629 31.1948 19.1135 30.0705 19.1135 28.8717ZM26.6073 34.4548V36.1035L23.9848 39.1385L21.3616 36.1035V34.5298C22.111 34.8667 22.9729 35.0167 23.8348 35.0542C23.8723 35.0542 23.9098 35.0542 23.9098 35.0542C24.8841 35.0542 25.7835 34.8298 26.6073 34.4548ZM34.851 46.4828H32.6029V45.3584C32.6029 44.9465 32.2654 44.6091 31.8535 44.6091C31.441 44.6091 31.1041 44.9465 31.1041 45.3584V46.4828H16.8654V45.3584C16.8654 44.9465 16.5279 44.6091 16.116 44.6091C15.7035 44.6091 15.3666 44.9465 15.3666 45.3584V46.4828H13.1179V40.4872C13.1179 38.2766 14.7291 36.441 16.8654 36.066V38.6516C16.0035 38.8391 15.3666 39.5885 15.3666 40.4872V42.361C15.3666 42.7734 15.7035 43.1103 16.116 43.1103C16.5279 43.1103 16.8654 42.7734 16.8654 42.361V40.4872C16.8654 40.2629 17.0148 40.1129 17.2398 40.1129H17.9891C18.2141 40.1129 18.3641 40.2629 18.3641 40.4872V42.361C18.3641 42.7734 18.701 43.1103 19.1135 43.1103C19.5254 43.1103 19.8629 42.7734 19.8629 42.361V40.4872C19.8629 39.5885 19.226 38.8391 18.3641 38.6516V35.991H19.8629V36.4035C19.8629 36.5904 19.9379 36.7404 20.0504 36.8904L23.2354 40.5622V45.2465C23.2354 45.6584 23.5723 45.9959 23.9848 45.9959C24.3966 45.9959 24.7341 45.6584 24.7341 45.2465V40.5622L27.9191 36.8904C28.0316 36.7404 28.1066 36.5904 28.1066 36.4035V35.991H29.6054V37.6398C28.7435 37.9398 28.1066 38.7641 28.1066 39.7379C28.1066 40.9747 29.1179 41.9866 30.3548 41.9866C31.591 41.9866 32.6029 40.9747 32.6029 39.7379C32.6029 38.7641 31.966 37.9398 31.1041 37.6398V36.066C33.2398 36.441 34.851 38.2766 34.851 40.4872V46.4828Z" fill="#5A46E6"/>
</g>
<path d="M23.5306 31.8679H24.3925C24.805 31.8679 25.1419 31.531 25.1419 31.1185C25.1419 30.7066 24.805 30.3691 24.3925 30.3691H23.5306C23.1187 30.3691 22.7812 30.7066 22.7812 31.1185C22.7812 31.531 23.1187 31.8679 23.5306 31.8679Z" fill="#5A46E6"/>
<path d="M22.6723 28.1216C22.6723 28.1779 22.6673 28.2341 22.6561 28.2898C22.6448 28.3454 22.6286 28.3991 22.6067 28.4516C22.5855 28.5035 22.5586 28.5535 22.5273 28.6004C22.4961 28.6472 22.4605 28.691 22.4205 28.731C22.3798 28.771 22.3367 28.8066 22.2898 28.8379C22.2423 28.8697 22.193 28.896 22.1405 28.9179C22.0886 28.9397 22.0342 28.956 21.9786 28.9666C21.9236 28.9779 21.8673 28.9835 21.8105 28.9835C21.7542 28.9835 21.698 28.9779 21.6423 28.9666C21.5873 28.956 21.533 28.9397 21.4811 28.9179C21.4286 28.896 21.3792 28.8697 21.3317 28.8379C21.2848 28.8066 21.2411 28.771 21.2011 28.731C21.1611 28.691 21.1255 28.6472 21.0942 28.6004C21.063 28.5535 21.0361 28.5035 21.0148 28.4516C20.993 28.3991 20.9767 28.3454 20.9655 28.2898C20.9542 28.2341 20.9492 28.1779 20.9492 28.1216C20.9492 28.0648 20.9542 28.0091 20.9655 27.9535C20.9767 27.8979 20.993 27.8441 21.0148 27.7916C21.0361 27.7398 21.063 27.6898 21.0942 27.6429C21.1255 27.596 21.1611 27.5523 21.2011 27.5123C21.2411 27.4723 21.2848 27.4366 21.3317 27.4048C21.3792 27.3735 21.4286 27.3473 21.4811 27.3254C21.533 27.3035 21.5873 27.2873 21.6423 27.276C21.698 27.2654 21.7542 27.2598 21.8105 27.2598C21.8673 27.2598 21.9236 27.2654 21.9786 27.276C22.0342 27.2873 22.0886 27.3035 22.1405 27.3254C22.193 27.3473 22.2423 27.3735 22.2898 27.4048C22.3367 27.4366 22.3798 27.4723 22.4205 27.5123C22.4605 27.5523 22.4961 27.596 22.5273 27.6429C22.5586 27.6898 22.5855 27.7398 22.6067 27.7916C22.6286 27.8441 22.6448 27.8979 22.6561 27.9535C22.6673 28.0091 22.6723 28.0648 22.6723 28.1216Z" fill="#5A46E6"/>
<path d="M27.0148 28.1216C27.0148 28.1779 27.0091 28.2341 26.9979 28.2898C26.9873 28.3454 26.971 28.3991 26.9491 28.4516C26.9273 28.5035 26.901 28.5535 26.8698 28.6004C26.8379 28.6472 26.8023 28.691 26.7623 28.731C26.7223 28.771 26.6785 28.8066 26.6316 28.8379C26.5848 28.8697 26.5348 28.896 26.4829 28.9179C26.4304 28.9397 26.3766 28.956 26.321 28.9666C26.2654 28.9779 26.2098 28.9835 26.1529 28.9835C26.0966 28.9835 26.0404 28.9779 25.9848 28.9666C25.9291 28.956 25.8754 28.9397 25.8229 28.9179C25.771 28.896 25.721 28.8697 25.6741 28.8379C25.6273 28.8066 25.5835 28.771 25.5435 28.731C25.5035 28.691 25.4679 28.6472 25.4366 28.6004C25.4048 28.5535 25.3785 28.5035 25.3566 28.4516C25.3348 28.3991 25.3185 28.3454 25.3079 28.2898C25.2966 28.2341 25.291 28.1779 25.291 28.1216C25.291 28.0648 25.2966 28.0091 25.3079 27.9535C25.3185 27.8979 25.3348 27.8441 25.3566 27.7916C25.3785 27.7398 25.4048 27.6898 25.4366 27.6429C25.4679 27.596 25.5035 27.5523 25.5435 27.5123C25.5835 27.4723 25.6273 27.4366 25.6741 27.4048C25.721 27.3735 25.771 27.3473 25.8229 27.3254C25.8754 27.3035 25.9291 27.2873 25.9848 27.276C26.0404 27.2654 26.0966 27.2598 26.1529 27.2598C26.2098 27.2598 26.2654 27.2654 26.321 27.276C26.3766 27.2873 26.4304 27.3035 26.4829 27.3254C26.5348 27.3473 26.5848 27.3735 26.6316 27.4048C26.6785 27.4366 26.7223 27.4723 26.7623 27.5123C26.8023 27.5523 26.8379 27.596 26.8698 27.6429C26.901 27.6898 26.9273 27.7398 26.9491 27.7916C26.971 27.8441 26.9873 27.8979 26.9979 27.9535C27.0091 28.0091 27.0148 28.0648 27.0148 28.1216Z" fill="#5A46E6"/>
<path d="M25.4773 6.01401H24.728V5.26401C24.728 4.85214 24.3905 4.51465 23.9786 4.51465C23.5661 4.51465 23.2292 4.85214 23.2292 5.26401V6.01401H22.4798C22.0673 6.01401 21.7305 6.35088 21.7305 6.76337C21.7305 7.17524 22.0673 7.51274 22.4798 7.51274H23.2292V8.26211C23.2292 8.67398 23.5661 9.01147 23.9786 9.01147C24.3905 9.01147 24.728 8.67398 24.728 8.26211V7.51274H25.4773C25.8892 7.51274 26.2267 7.17524 26.2267 6.76337C26.2267 6.35088 25.8892 6.01401 25.4773 6.01401Z" fill="#5A46E6"/>
<path d="M5.9968 20.2523V21.0017H5.24742C4.83555 21.0017 4.49805 21.3385 4.49805 21.751C4.49805 22.1629 4.83555 22.5004 5.24742 22.5004H5.9968V23.2498C5.9968 23.6616 6.3343 23.9991 6.74617 23.9991C7.15867 23.9991 7.49555 23.6616 7.49555 23.2498V22.5004H8.24492C8.65742 22.5004 8.99492 22.1629 8.99492 21.751C8.99492 21.3385 8.65742 21.0017 8.24492 21.0017H7.49555V20.2523C7.49555 19.8398 7.15867 19.5029 6.74617 19.5029C6.3343 19.5029 5.9968 19.8398 5.9968 20.2523Z" fill="#5A46E6"/>
<path d="M42.7195 21.0017H41.9702V20.2523C41.9702 19.8398 41.6333 19.5029 41.2208 19.5029C40.8089 19.5029 40.4714 19.8398 40.4714 20.2523V21.0017H39.722C39.3102 21.0017 38.9727 21.3385 38.9727 21.751C38.9727 22.1629 39.3102 22.5004 39.722 22.5004H40.4714V23.2498C40.4714 23.6616 40.8089 23.9991 41.2208 23.9991C41.6333 23.9991 41.9702 23.6616 41.9702 23.2498V22.5004H42.7195C43.132 22.5004 43.4689 22.1629 43.4689 21.751C43.4689 21.3385 43.132 21.0017 42.7195 21.0017Z" fill="#5A46E6"/>
<mask id="mask1_3912_9373" style="mask-type:luminance" maskUnits="userSpaceOnUse" x="0" y="0" width="48" height="36">
<path d="M0 0H48V35.1252H0V0Z" fill="white"/>
</mask>
<g mask="url(#mask1_3912_9373)">
<path d="M41.2175 15.0065C40.6931 15.0065 40.2056 15.0815 39.7562 15.1565C37.995 11.1472 34.735 7.96221 30.7256 6.23848C30.4262 2.79165 27.5406 0.0185547 23.9812 0.0185547C20.4212 0.0185547 17.5362 2.79165 17.2738 6.23848C13.2269 7.96221 10.0044 11.1472 8.24312 15.1565C7.75625 15.0815 7.26937 15.0065 6.74437 15.0065C3.035 15.0065 0 18.0421 0 21.7514C0 25.4608 3.035 28.4957 6.74437 28.4957C7.15687 28.4957 7.53125 28.4582 7.94375 28.3839C8.95562 30.9313 10.5294 33.2176 12.5525 34.9782C12.9275 34.6413 13.3394 34.3413 13.7894 34.0419C11.8781 32.3932 10.3419 30.2945 9.405 27.9339C11.8406 26.922 13.5269 24.5239 13.5269 21.7139C13.5269 19.0158 11.9531 16.7302 9.6675 15.644C11.2037 12.1965 13.9762 9.42345 17.3487 7.84972C17.8731 11.0722 20.6462 13.5078 23.9812 13.5078C27.3162 13.5078 30.0887 11.0722 30.6131 7.84972C34.0231 9.46095 36.7588 12.234 38.295 15.644C36.0469 16.7677 34.4731 19.0533 34.4731 21.7514C34.4731 24.5239 36.1594 26.922 38.5944 27.9714C37.6581 30.332 36.1219 32.4307 34.2106 34.0788C34.66 34.3413 35.0725 34.6413 35.4469 35.0157C37.4706 33.2176 39.0444 30.9688 40.0562 28.4214C40.4306 28.4957 40.8431 28.5332 41.255 28.5332C44.965 28.5332 48 25.4983 48 21.7889C48 18.079 44.9275 15.0065 41.2175 15.0065ZM11.9906 21.7514C11.9906 24.6364 9.63 26.997 6.74437 26.997C3.85938 26.997 1.49875 24.6364 1.49875 21.7514C1.49875 18.8658 3.85938 16.5052 6.74437 16.5052C9.63 16.5052 11.9906 18.8658 11.9906 21.7514ZM23.9812 12.009C21.0956 12.009 18.735 9.64845 18.735 6.76348C18.735 3.87789 21.0956 1.51729 23.9812 1.51729C26.8662 1.51729 29.2269 3.87789 29.2269 6.76348C29.2269 9.64845 26.8662 12.009 23.9812 12.009ZM41.2175 26.997C38.3325 26.997 35.9719 24.6364 35.9719 21.7514C35.9719 18.8658 38.3325 16.5052 41.2175 16.5052C44.1031 16.5052 46.4637 18.8658 46.4637 21.7514C46.4637 24.6364 44.1031 26.997 41.2175 26.997Z" fill="#5A46E6"/>
</g>
</svg>
