<svg width="152.148926" height="58.123291" viewBox="0 0 152.149 58.1233" fill="none" xmlns="http://www.w3.org/2000/svg" xmlns:xlink="http://www.w3.org/1999/xlink">
	<desc>
			Created with Pixso.
	</desc>
	<defs/>
	<g style="mix-blend-mode:normal">
		<mask id="mask_1_2282" fill="white">
			<path id="Subtraction 1" d="M152.149 44.6748L152.149 16.3618C152.149 7.32568 144.798 0 135.731 0L21.6514 0L0 21.5791L0 58.1233L138.654 58.1233L152.149 44.6748ZM100.316 28.0278C100.316 20.2168 94.2485 17.6069 90.3291 17.6069C85.2529 17.6069 81.1084 21.825 79.9556 23.6626L80.3867 24.2141C84.7715 21.7168 93.3354 23.2034 93.3354 33.9343L93.3354 37.4907C91.8506 38.1362 90.2461 38.5657 88.6558 38.5657C80.7236 38.5657 78.7612 34.6902 78.7612 27.511L78.7612 12.0244L71.6567 17.1589L71.6567 30.0955C71.6567 39.9741 75.6519 44.8721 83.0288 44.8721C89.5596 44.8721 94.2646 39.3423 100.316 33.3118L100.316 28.0278ZM28.2363 19.7573L28.2363 12.208L21.1729 17.3127L21.1729 36.8403C21.1729 41.1543 24.6821 44.6514 29.0112 44.6514L32.7734 44.6514L38.1904 39.3721L38.1904 38.77L32.1572 38.7729C29.9922 38.7739 28.2363 37.0249 28.2363 34.8674L28.2363 25.7302L32.7734 25.7302L38.1904 20.3682L38.1904 19.7573L28.2363 19.7573ZM131.898 39.4023L131.898 31.5801C131.898 21.7014 127.903 16.8032 120.526 16.8032C113.996 16.8032 109.288 22.3354 103.239 28.3633L103.239 33.6475C103.239 41.4587 109.307 44.0684 113.226 44.0684C118.302 44.0684 122.447 39.8503 123.6 38.0125L123.168 37.4609C118.784 39.9585 110.22 38.4719 110.22 27.741L110.22 24.1846C111.704 23.5391 113.306 23.1096 114.899 23.1096C122.832 23.1096 124.793 26.9851 124.793 34.1646L124.793 44.5369L131.898 39.4023ZM42.1514 34.874C42.1514 40.2729 46.5449 44.6516 51.9624 44.6516L59.7866 44.6516L66.8501 38.7427L66.8501 19.6541L59.7866 24.7588L59.7866 38.7703L54.2793 38.7725C51.4829 38.7749 49.2144 36.5144 49.2144 33.7275L49.2144 19.6541L42.1514 24.7588L42.1514 34.874Z" clip-rule="evenodd" fill="" fill-opacity="1.000000" fill-rule="evenodd"/>
		</mask>
		<path id="Subtraction 1" d="M152.149 44.6748L152.149 16.3618C152.149 7.32568 144.798 0 135.731 0L21.6514 0L0 21.5791L0 58.1233L138.654 58.1233L152.149 44.6748ZM100.316 28.0278C100.316 20.2168 94.2485 17.6069 90.3291 17.6069C85.2529 17.6069 81.1084 21.825 79.9556 23.6626L80.3867 24.2141C84.7715 21.7168 93.3354 23.2034 93.3354 33.9343L93.3354 37.4907C91.8506 38.1362 90.2461 38.5657 88.6558 38.5657C80.7236 38.5657 78.7612 34.6902 78.7612 27.511L78.7612 12.0244L71.6567 17.1589L71.6567 30.0955C71.6567 39.9741 75.6519 44.8721 83.0288 44.8721C89.5596 44.8721 94.2646 39.3423 100.316 33.3118L100.316 28.0278ZM28.2363 19.7573L28.2363 12.208L21.1729 17.3127L21.1729 36.8403C21.1729 41.1543 24.6821 44.6514 29.0112 44.6514L32.7734 44.6514L38.1904 39.3721L38.1904 38.77L32.1572 38.7729C29.9922 38.7739 28.2363 37.0249 28.2363 34.8674L28.2363 25.7302L32.7734 25.7302L38.1904 20.3682L38.1904 19.7573L28.2363 19.7573ZM131.898 39.4023L131.898 31.5801C131.898 21.7014 127.903 16.8032 120.526 16.8032C113.996 16.8032 109.288 22.3354 103.239 28.3633L103.239 33.6475C103.239 41.4587 109.307 44.0684 113.226 44.0684C118.302 44.0684 122.447 39.8503 123.6 38.0125L123.168 37.4609C118.784 39.9585 110.22 38.4719 110.22 27.741L110.22 24.1846C111.704 23.5391 113.306 23.1096 114.899 23.1096C122.832 23.1096 124.793 26.9851 124.793 34.1646L124.793 44.5369L131.898 39.4023ZM42.1514 34.874C42.1514 40.2729 46.5449 44.6516 51.9624 44.6516L59.7866 44.6516L66.8501 38.7427L66.8501 19.6541L59.7866 24.7588L59.7866 38.7703L54.2793 38.7725C51.4829 38.7749 49.2144 36.5144 49.2144 33.7275L49.2144 19.6541L42.1514 24.7588L42.1514 34.874Z" clip-rule="evenodd" fill="#FFFFFF" fill-opacity="1.000000" fill-rule="evenodd" mask="url(#mask_1_2282)"/>
		<path id="Subtraction 1" d="" fill="#000000" fill-opacity="0.000000" fill-rule="nonzero"/>
	</g>
</svg>
